<svg width="501" height="501" viewBox="0 0 501 501" fill="none" xmlns="http://www.w3.org/2000/svg">
<g clip-path="url(#clip0_15_63)">
<path d="M338.525 39.5077C285.503 4.56557 210.993 11.6271 164.119 63.4924C138.491 91.8601 128.081 130.881 101.479 158.64C71.5283 189.929 35.7338 220.306 22.1587 262.918C7.73141 308.209 20.3934 360.136 52.657 394.773C91.9213 436.899 149.631 424.237 204.175 423.567C427.524 420.767 593.53 271.684 382.294 87.9032C364.641 72.441 356.057 51.0131 338.525 39.5077Z" fill="#885CE7" fill-opacity="0.25"/>
<path d="M356.666 264.745C356.666 264.745 329.942 303.157 302.67 290.677C275.337 278.198 295.852 267.241 295.852 267.241C295.852 267.241 290.799 256.709 323.915 268.397C339.56 273.815 356.666 264.745 356.666 264.745Z" fill="#2C3842" fill-opacity="0.75"/>
<path d="M324.098 146.221C324.098 146.221 349.969 176.659 315.393 218.723C280.816 260.849 286.173 283.129 286.173 283.129C286.173 283.129 237.96 209.896 324.098 146.221Z" fill="#2C3842" fill-opacity="0.75"/>
<path d="M291.286 281.181C275.215 284.407 288.242 237.595 312.349 223.35C336.516 209.105 358.066 207.705 371.641 193.947C371.641 193.947 370.545 265.171 291.286 281.181Z" fill="#CCCCCC"/>
<path d="M397.026 555.422C404.696 542.699 410.418 529.124 414.131 515.123L444.447 509.34L444.751 475.798L445.056 442.256L414.923 435.864C411.453 421.802 405.974 408.105 398.547 395.26L415.836 369.754L392.338 345.83L368.901 321.906L343.09 338.708C330.368 331.037 316.792 325.315 302.791 321.602L297.008 291.286L263.466 290.982L229.924 290.677L223.532 320.871C209.47 324.341 195.773 329.82 182.929 337.247L157.422 319.958L133.498 343.456L109.574 366.893L126.376 392.703C118.706 405.426 112.983 419.001 109.27 433.003L78.9545 438.786L78.6501 472.328L78.3457 505.87L108.54 512.262C112.009 526.324 117.488 540.021 124.915 552.865L107.627 578.372L131.124 602.296L154.622 626.219L180.433 609.418C193.156 617.088 206.731 622.81 220.732 626.524L226.515 656.839L260.057 657.144L293.599 657.448L299.991 627.254C314.053 623.784 327.75 618.306 340.595 610.879L366.101 628.167L390.025 604.67L413.949 581.172L397.026 555.422ZM203.078 531.62C171.302 499.234 171.789 447.186 204.174 415.41C236.559 383.633 288.607 384.12 320.384 416.506C352.161 448.891 351.674 500.939 319.288 532.716C286.903 564.492 234.855 564.005 203.078 531.62Z" fill="#67D5CE"/>
<path d="M323.245 354.474C323.245 354.474 329.211 364.58 331.707 366.223C335.116 368.476 332.985 370.728 331.342 370.728C329.698 370.728 321.48 371.337 319.654 369.267C317.827 367.197 316.914 360.988 315.21 359.405C313.505 357.762 311.74 351.37 316.062 349.787C319.836 348.326 323.245 354.474 323.245 354.474Z" fill="#2C3842"/>
<path d="M320.689 350.03C320.689 350.03 327.507 361.84 328.663 363.606C329.82 365.371 326.472 365.371 324.341 364.519C322.271 363.666 316.975 355.205 316.184 353.683C315.271 351.857 316.001 349.726 316.001 349.726L320.689 350.03Z" fill="#FFE3CA"/>
<path d="M313.749 356.422L315.331 368.476L316.184 368.536L315.94 359.831L313.749 356.422ZM264.927 358.736C264.927 358.736 270.893 368.841 273.389 370.484C276.798 372.737 274.667 374.989 273.023 374.989C271.38 374.989 263.162 375.598 261.335 373.528C259.509 371.458 258.596 365.249 256.891 363.666C255.187 362.023 253.361 355.448 257.744 354.048C261.518 352.77 264.927 358.736 264.927 358.736Z" fill="#2C3842"/>
<path d="M262.675 354.353C262.675 354.353 269.128 366.101 270.284 367.867C271.441 369.632 268.093 369.632 265.962 368.78C263.892 367.928 258.596 359.466 257.805 357.944C256.892 356.118 257.622 353.987 257.622 353.987L262.675 354.353Z" fill="#FFE3CA"/>
<path d="M255.431 360.684L257.013 372.737L257.805 372.798L257.561 364.093L255.431 360.684Z" fill="#2C3842"/>
<path d="M238.508 266.997L292.321 291.53C292.321 291.53 298.348 293.478 299.017 300.174C301.087 320.993 316.671 353.987 316.671 353.987C321.663 356.422 321.298 354.292 321.298 354.292C318.132 344.186 314.297 302.548 312.958 285.807C312.653 282.277 312.471 279.842 312.471 279.05C312.471 278.502 311.862 277.833 310.888 277.041C303.522 271.076 273.146 258.657 273.146 258.657C250.257 258.048 238.508 266.997 238.508 266.997Z" fill="#FFE3CA"/>
<path d="M228.402 277.528C230.046 292.077 250.804 290.434 250.804 290.434H275.945C275.945 290.434 269.31 305.165 266.814 317.523C264.136 330.672 257.744 353.987 257.744 353.987C257.744 353.987 258.17 354.778 262.736 354.352C262.736 354.352 282.459 314.966 290.068 305.105C291.712 302.974 296.338 291.408 297.13 284.529C297.373 282.216 297.252 280.389 296.338 279.72C295.486 278.989 293.477 277.589 290.799 275.945C282.946 270.954 269.249 263.344 261.579 261.64C251.352 259.327 235.22 255.065 235.22 255.065C235.22 255.065 226.698 262.979 228.402 277.528Z" fill="#FFE3CA"/>
<path d="M245.508 165.519C245.508 165.519 241.734 158.397 243.561 150.726C245.387 143.117 252.448 135.508 262.797 139.038C273.146 142.508 281.486 150.544 275.276 159.858C269.067 169.171 280.877 173.372 277.894 177.755C274.911 182.199 276.007 186.764 277.285 187.799C278.564 188.834 282.642 192.486 282.216 196.809C281.79 201.131 262.127 184.147 262.127 184.147C262.127 184.147 251.535 162.78 245.508 165.519Z" fill="#2C3842"/>
<path d="M277.041 256.892C277.041 256.892 275.459 264.44 235.281 254.883C235.281 254.944 248.735 250.439 277.041 256.892Z" fill="#EB4747"/>
<path d="M234.855 257.074C234.246 258.292 233.637 259.448 232.968 260.666L277.041 261.944C274.728 254.152 275.458 243.621 275.884 235.646C276.371 225.906 281.789 219.088 281.181 209.227C284.103 209.714 284.59 209.775 287.512 210.262C283.068 197.6 281.546 191.269 267.727 186.399C263.223 184.816 260.24 184.511 255.37 184.877C239.36 186.216 234.55 186.399 226.637 200.887C238.933 202.835 236.925 207.279 240.638 219.514C242.464 225.48 244.351 232.176 243.377 238.447C242.464 244.595 234.855 251.413 234.855 257.074Z" fill="white"/>
<path d="M260.362 189.382C253.787 188.164 255.187 184.512 255.187 184.512C255.187 184.512 255.492 182.442 255.614 179.824C255.674 179.155 255.674 178.485 255.674 177.755C255.674 176.659 255.614 175.563 255.492 174.528C254.944 170.145 267.362 172.763 267.362 172.763C267.362 172.763 266.632 181.651 268.336 184.329C270.102 187.008 266.936 190.599 260.362 189.382Z" fill="#FFE3CA"/>
<path d="M247.882 184.451C247.882 184.451 261.092 199.73 265.962 203.261C265.962 203.261 271.562 198.208 268.092 184.816C268.153 184.816 261.761 181.589 247.882 184.451ZM248.247 147.743C248.247 147.743 241.368 160.953 248.186 173.493C255.004 186.033 268.397 168.014 269.249 165.945C270.101 163.814 274.728 151.883 265.597 148.291C256.465 144.638 250.195 144.151 248.247 147.743Z" fill="#FFE3CA"/>
<path d="M250.5 152.431C250.5 152.431 245.752 158.64 245.204 163.206C245.204 163.206 243.317 154.561 248.613 146.222C253.909 137.882 267.484 145.795 269.249 149.144C271.076 152.492 276.372 155.414 267.423 169.719C267.545 169.719 251.474 158.579 250.5 152.431Z" fill="#2C3842"/>
<path d="M261.519 174.833C261.519 174.833 260.301 177.45 255.675 179.885C255.736 179.216 255.736 178.546 255.736 177.815C255.675 177.755 258.84 177.389 261.519 174.833Z" fill="#FCD2B1"/>
<path d="M192.121 245.143C192.121 245.143 188.834 246.604 187.312 245.934C185.79 245.265 183.355 245.143 182.625 245.143C181.59 245.143 178.485 243.986 178.485 245.265C178.546 246.482 183.599 247.334 184.634 247.76C185.669 248.126 181.529 250.439 181.164 251.413C180.799 252.448 185.486 259.083 188.104 257.196C190.721 255.309 192.182 251.535 192.73 251.291C193.278 251.048 194.739 250.013 194.739 250.013L192.121 245.143Z" fill="#FFE3CA"/>
<path d="M181.651 250.804C181.651 250.804 173.98 257.135 173.859 257.987C173.737 258.84 174.163 259.266 174.893 258.657C175.624 258.109 182.503 252.752 182.503 252.752C182.503 252.752 174.833 261.823 174.589 262.492C174.467 262.857 175.198 263.71 175.624 263.466C176.05 263.223 184.207 254.7 184.207 254.7C184.207 254.7 177.085 263.162 177.024 263.831C176.963 264.379 177.876 264.988 178.424 264.379C178.972 263.771 186.094 256.344 186.094 256.344C186.094 256.344 181.285 262.857 181.59 263.405C181.772 263.771 182.381 264.501 183.538 262.797C184.694 261.092 187.921 257.318 187.921 257.318L181.651 250.804Z" fill="#FFE3CA"/>
<path d="M273.328 290.434H250.804C250.804 290.434 230.046 292.077 228.402 277.528C226.759 262.979 235.22 254.883 235.22 254.883C235.22 254.883 246.178 257.805 255.735 260.118C260.544 259.083 266.327 258.414 273.023 258.596C273.023 258.596 313.627 271.989 312.41 279.05C312.41 279.111 295.425 270.041 273.328 290.434Z" fill="#2C3842"/>
<path d="M258.657 265.232L301.635 264.623L279.963 275.641L258.657 265.232Z" fill="#E6E6E6"/>
<path d="M272.049 259.753C272.049 259.753 262.37 263.466 250.561 260.118L250.013 255.674L274.423 257.014L272.049 259.753Z" fill="#CCCCCC"/>
<path d="M279.963 275.642L258.657 267.363V265.232L281.607 273.511L279.963 275.642Z" fill="#F2F2F2"/>
<path d="M271.867 261.823C271.745 263.405 273.328 264.562 274.85 263.953L277.345 262.857C278.076 262.553 278.502 261.762 278.38 260.97C277.345 254.457 275.093 229.194 278.38 224.811C279.598 223.228 280.328 221.828 280.754 220.549C282.885 226.089 285.563 233.211 286.659 237.046L306.931 264.075L313.749 265.779C305.287 245.325 298.408 234.49 298.408 234.49C297.069 230.898 293.295 220.123 289.886 210.505C287.755 204.418 285.807 198.817 284.772 195.834C284.224 194.312 283.189 193.034 281.789 192.182C278.624 190.295 273.389 187.312 268.64 185.059H268.579C268.458 184.998 268.275 184.938 268.153 184.816C277.163 198.452 273.632 237.046 271.867 261.823C271.867 261.762 271.867 261.762 271.867 261.823ZM238.325 185.972C235.403 186.399 228.28 193.399 224.445 200.4C220.123 208.435 215.679 217.566 212.331 220.549C206.244 226.089 189.138 245.63 188.346 245.143C188.042 244.96 193.034 250.987 193.642 251.23C193.947 251.352 221.706 227.306 224.384 223.654C226.941 220.184 233.698 205.635 235.707 205.939C235.89 206.244 238.325 211.601 240.638 219.393C240.699 219.514 240.699 219.636 240.76 219.758C242.342 225.176 242.221 231.081 241.368 237.716C240.699 242.708 236.985 250.926 234.733 254.883C234.49 255.37 234.55 256.283 234.794 256.953C234.977 257.379 235.22 257.683 235.524 257.805L243.682 260.849L245.569 261.579C246.969 262.066 248.369 261.822 249.465 261.031C250.378 260.361 250.987 259.388 251.169 258.231C252.995 244.291 255.248 230.046 257.074 224.689C265.11 201.13 253.969 183.477 253.969 183.477C253.969 183.477 240.881 184.998 238.325 185.972Z" fill="#67D5CE"/>
<path d="M279.964 275.642L292.748 240.76L333.899 241.43L321.724 273.572L279.964 275.642Z" fill="#F2F2F2"/>
<path d="M305.896 256.161C304.617 258.657 305.043 261.397 306.748 262.249C308.452 263.101 310.887 261.762 312.166 259.266C313.444 256.77 313.018 254.031 311.314 253.179C309.548 252.326 307.174 253.666 305.896 256.161Z" fill="#D3D3D3"/>
<path d="M262.493 160.892C262.493 160.892 265.11 164.971 262.675 168.562C260.24 172.093 263.284 175.563 263.832 179.337C264.38 183.111 253.666 193.034 265.536 198.087C277.468 203.078 281.242 194.799 278.198 190.234C275.155 185.668 273.024 181.955 272.72 175.441C272.476 168.928 270.346 158.822 262.493 160.892Z" fill="#2C3842"/>
<path d="M398.061 273.511V281.242L406.4 273.511H438.847C440.916 273.511 442.56 271.746 442.56 269.615V221.098C442.56 218.967 440.916 217.202 438.847 217.202H386.92C384.851 217.202 383.207 218.967 383.207 221.098V269.615C383.207 271.746 384.851 273.511 386.92 273.511H398.061Z" fill="#6D30DF"/>
<path d="M429.533 261.823V259.875C429.533 253.422 424.541 248.247 418.392 248.247H407.252C401.104 248.247 396.112 253.483 396.112 259.875V261.823H429.533ZM420.28 234.672C420.28 238.934 416.932 242.403 412.853 242.403C408.774 242.403 405.426 238.934 405.426 234.672C405.426 230.411 408.774 226.88 412.853 226.88C416.932 226.941 420.28 230.411 420.28 234.672Z" fill="white"/>
<path d="M163.205 213.975C163.205 217.019 160.831 219.454 157.97 219.454H154.5V232.298L142.265 219.454H102.026C99.1043 219.454 96.791 217.019 96.791 213.975V168.197C96.791 165.153 99.1651 162.718 102.026 162.718H158.031C160.953 162.718 163.266 165.153 163.266 168.197V213.975H163.205Z" fill="#6D30DF"/>
<path d="M107.262 179.215H152.735V182.868H107.262V179.215ZM107.262 188.347H152.735V191.999H107.262V188.347ZM107.262 197.539H152.735V201.191H107.262V197.539Z" fill="white"/>
<path d="M151.213 128.568C159.005 122.115 163.51 113.166 164.119 102.757C164.18 102.087 164.18 101.478 164.18 100.809C164.24 96.7908 163.753 93.3818 162.658 89.6076C162.597 89.4858 162.597 89.425 162.536 89.3032C162.536 89.425 162.597 89.4858 162.658 89.6076L152.431 92.8948C153.161 95.3298 153.526 97.9474 153.526 100.687C153.405 109.027 149.448 116.332 143.36 120.836L149.509 129.968C150.057 129.481 150.665 129.055 151.213 128.568Z" fill="#67D5CE"/>
<path d="M109.94 114.749C107.139 110.549 105.496 105.435 105.557 99.9567C105.739 86.0772 116.636 75.0589 129.846 75.2415C140.499 75.4241 149.387 82.79 152.369 92.8952L162.596 89.608C162.596 89.4862 162.536 89.4253 162.475 89.3036C162.353 88.8775 162.17 88.3905 162.049 87.9643C161.988 87.8426 161.988 87.7208 161.927 87.5991C157.057 73.9023 145.369 64.8928 131.428 64.1014C131.124 64.1014 130.759 64.1014 130.454 64.0405H128.141C127.776 64.0405 127.411 64.1014 127.045 64.1014C126.802 64.1014 126.558 64.1623 126.315 64.1623C126.132 64.1623 125.889 64.2232 125.706 64.2232C125.28 64.284 124.854 64.3449 124.489 64.4058H124.428C121.445 64.8928 118.645 65.745 115.966 66.9016C115.662 67.0234 115.297 67.206 114.992 67.3278C104.339 72.5021 96.608 83.1552 95.2079 95.939V96.1824C95.147 96.6086 95.147 97.0347 95.0862 97.4608C95.0862 97.7043 95.0253 97.8869 95.0253 98.1304C95.0253 98.4348 95.0253 98.7392 94.9644 98.9827V99.7132C94.8427 107.688 97.2168 115.054 101.295 121.141L109.94 114.749Z" fill="#E1D6F9"/>
<path d="M149.509 129.907L143.36 120.775C139.343 123.758 134.473 125.463 129.237 125.341C121.263 125.219 114.262 121.019 110.001 114.688L101.296 121.141C101.661 121.749 102.087 122.297 102.513 122.845C108.357 130.576 116.271 135.203 125.585 136.299H125.768C126.255 136.359 126.742 136.42 127.168 136.42H127.655C128.142 136.42 128.629 136.481 129.116 136.481C136.542 136.603 143.482 134.229 149.204 130.089C149.874 129.663 150.057 129.481 149.509 129.907Z" fill="#2C3842"/>
<path d="M130.211 99.7736L167.892 112.557C174.65 90.7642 163.266 67.3882 142.447 60.3267C138.307 58.9266 134.594 58.3179 130.211 58.3179V99.7736Z" fill="#6D30DF"/>
<path d="M436.96 132.098L436.777 123.089L429.107 122.602C428.498 119.68 427.402 116.94 425.941 114.505L430.933 108.114L424.724 101.904L419.002 107.2C416.688 105.618 414.071 104.461 411.271 103.852L410.479 95.6343L401.896 95.8169L401.409 103.792C398.609 104.4 395.991 105.557 393.678 107.14L387.529 101.965L381.564 108.479L386.616 114.505C385.094 116.94 383.999 119.68 383.39 122.602L375.537 123.454L375.72 132.464L383.39 132.951C383.999 135.873 385.094 138.612 386.555 141.047L381.564 147.439L387.773 153.648L393.495 148.352C395.808 149.935 398.426 151.091 401.226 151.7L402.018 159.918L410.601 159.735L411.088 151.761C413.888 151.152 416.506 149.996 418.819 148.413L424.967 153.587L430.933 147.074L425.881 141.047C427.402 138.612 428.498 135.873 429.107 132.951L436.96 132.098ZM406.522 139.586C400.252 139.708 395.078 134.533 394.956 127.959C394.834 121.384 399.765 115.966 406.035 115.845C412.306 115.723 417.48 120.897 417.602 127.472C417.784 133.985 412.792 139.403 406.522 139.586Z" fill="#67D5CE"/>
<path d="M405.244 133.559L401.592 129.724L403.54 127.715L405.244 129.542L411.088 123.454L412.975 125.463L405.244 133.559Z" fill="#6D30DF"/>
</g>
<defs>
<clipPath id="clip0_15_63">
<rect width="501" height="501" fill="white"/>
</clipPath>
</defs>
</svg>
