<svg width="300" height="149" viewBox="0 0 300 149" fill="none" xmlns="http://www.w3.org/2000/svg">
<g clip-path="url(#clip0_127_29)">
<rect width="300" height="148.052" fill="#6D30DF"/>
<path d="M270.32 80.0524C275.622 50.4319 229.362 39.4303 256.714 10.7478C284.065 -17.9347 329 10.7478 329 10.7478V135.585H315.165C315.165 135.585 306.546 172.239 298.913 151.803C291.28 131.367 265.019 109.673 270.32 80.0524Z" fill="#67D5CE"/>
<path d="M258.32 81.0524C263.622 51.4319 217.362 40.4303 244.714 11.7478C272.065 -16.9347 317 11.7478 317 11.7478V136.585H303.165C303.165 136.585 294.546 173.239 286.913 152.803C279.28 132.367 253.019 110.673 258.32 81.0524Z" fill="#67D5CE" fill-opacity="0.35"/>
</g>
<defs>
<clipPath id="clip0_127_29">
<rect width="300" height="148.052" fill="white"/>
</clipPath>
</defs>
</svg>
