<svg width="100" height="87" viewBox="0 0 100 87" fill="none" xmlns="http://www.w3.org/2000/svg">
<g clip-path="url(#clip0_134_32)">
<rect width="100" height="86.5497" fill="#6D30DF"/>
<path d="M65.8256 66.1595C93.1514 51.6788 82.1668 16.5355 118.363 16.2254C154.56 15.9154 150.039 60.8378 150.039 60.8378L44.6638 135.657L38.6013 127.118C38.6013 127.118 3.88476 143.767 17.79 126.809C31.6952 109.85 38.4997 80.6402 65.8256 66.1595Z" fill="#67D5CE"/>
<path d="M55.9109 50.2186C86.1921 40.2081 73.0951 -8.45743 113.632 2.55542C154.169 13.5683 150.12 69.9237 150.12 69.9237L33.7757 132.937L26.7923 120.043C26.7923 120.043 -11.7184 130.512 3.47432 113.083C18.667 95.6541 25.6297 60.2292 55.9109 50.2186Z" fill="#67D5CE" fill-opacity="0.35"/>
</g>
<defs>
<clipPath id="clip0_134_32">
<rect width="100" height="86.5497" fill="white"/>
</clipPath>
</defs>
</svg>
