<svg width="30" height="30" viewBox="0 0 30 30" fill="none" xmlns="http://www.w3.org/2000/svg">
<path fill-rule="evenodd" clip-rule="evenodd" d="M15 0C6.71591 0 0 6.71591 0 15C0 23.2841 6.71591 30 15 30C23.2841 30 30 23.2841 30 15C30 6.71591 23.2841 0 15 0ZM20.055 11.8732C20.3034 11.616 20.4408 11.2715 20.4377 10.914C20.4346 10.5565 20.2912 10.2144 20.0384 9.96161C19.7856 9.70878 19.4435 9.56537 19.086 9.56226C18.7285 9.55916 18.384 9.6966 18.1268 9.945L15 13.0718L11.8732 9.945C11.7474 9.81476 11.5969 9.71087 11.4306 9.63941C11.2642 9.56794 11.0852 9.53032 10.9042 9.52875C10.7231 9.52718 10.5436 9.56168 10.376 9.63024C10.2084 9.69881 10.0561 9.80006 9.9281 9.9281C9.80006 10.0561 9.69881 10.2084 9.63024 10.376C9.56168 10.5436 9.52718 10.7231 9.52875 10.9042C9.53032 11.0852 9.56794 11.2642 9.63941 11.4306C9.71087 11.5969 9.81476 11.7474 9.945 11.8732L13.0718 15L9.945 18.1268C9.81476 18.2526 9.71087 18.4031 9.63941 18.5694C9.56794 18.7358 9.53032 18.9148 9.52875 19.0958C9.52718 19.2769 9.56168 19.4564 9.63024 19.624C9.69881 19.7916 9.80006 19.9439 9.9281 20.0719C10.0561 20.1999 10.2084 20.3012 10.376 20.3698C10.5436 20.4383 10.7231 20.4728 10.9042 20.4713C11.0852 20.4697 11.2642 20.4321 11.4306 20.3606C11.5969 20.2891 11.7474 20.1852 11.8732 20.055L15 16.9282L18.1268 20.055C18.384 20.3034 18.7285 20.4408 19.086 20.4377C19.4435 20.4346 19.7856 20.2912 20.0384 20.0384C20.2912 19.7856 20.4346 19.4435 20.4377 19.086C20.4408 18.7285 20.3034 18.384 20.055 18.1268L16.9282 15L20.055 11.8732Z" fill="#0D0D0D"/>
</svg>
