<svg width="20" height="20" viewBox="0 0 20 20" fill="none" xmlns="http://www.w3.org/2000/svg">
<path d="M13.4162 3.2C13.8651 2.75129 14.4739 2.49927 15.1086 2.49939C15.7433 2.4995 16.3519 2.75175 16.8006 3.20063C17.2493 3.6495 17.5014 4.25825 17.5012 4.89294C17.5011 5.52764 17.2489 6.13629 16.8 6.585L15.8837 7.5L12.4975 4.1175L13.415 3.2H13.4162ZM11.6162 5.00125L4.17125 12.4438C3.94526 12.6699 3.77495 12.9455 3.67375 13.2488L2.53125 16.6775C2.49475 16.7875 2.48957 16.9055 2.51628 17.0183C2.54299 17.1311 2.60055 17.2343 2.68252 17.3162C2.76448 17.3982 2.86763 17.4558 2.98043 17.4825C3.09322 17.5092 3.21123 17.504 3.32125 17.4675L6.75 16.325C7.05375 16.225 7.32875 16.0538 7.555 15.8275L15 8.385L11.615 5.00125H11.6162Z" fill="#84919A"/>
</svg>
