<svg width="103" height="102" viewBox="0 0 103 102" fill="none" xmlns="http://www.w3.org/2000/svg">
<path d="M48.0667 26.2132H54.9333V102H48.0667V26.2132ZM19.9563 4.89815C17.8819 6.97942 16.0401 9.24011 14.4307 11.6802C12.8214 14.1203 11.4444 16.704 10.3 19.4311C9.15556 22.1583 8.3151 24.9393 7.77865 27.7741C7.24219 30.609 6.93819 33.5335 6.86667 36.5478C6.86667 39.4902 7.15278 42.3968 7.725 45.2675C8.29722 48.1383 9.15556 50.9372 10.3 53.6644C11.4444 56.3916 12.8035 58.9573 14.3771 61.3615C15.9507 63.7657 17.8104 66.0443 19.9563 68.1974L15.0745 73.0955C10.2106 68.1794 6.49115 62.5995 3.91615 56.3557C1.34115 50.1119 0.0357639 43.5092 0 36.5478C0 29.6222 1.2875 23.0375 3.8625 16.7937C6.4375 10.5499 10.1748 4.95198 15.0745 0L19.9563 4.89815ZM87.9255 0C92.7894 4.9161 96.5089 10.496 99.0839 16.7398C101.659 22.9836 102.964 29.5863 103 36.5478C103 43.4734 101.713 50.058 99.1375 56.3018C96.5625 62.5456 92.8252 68.1435 87.9255 73.0955L83.0438 68.1974C85.1181 66.1161 86.9599 63.8554 88.5693 61.4153C90.1786 58.9752 91.5556 56.3916 92.7 53.6644C93.8444 50.9372 94.6849 48.1562 95.2214 45.3214C95.7578 42.4865 96.0618 39.562 96.1333 36.5478C96.1333 33.6053 95.8472 30.6987 95.275 27.828C94.7028 24.9573 93.8444 22.1583 92.7 19.4311C91.5556 16.704 90.1965 14.1383 88.6229 11.734C87.0493 9.32982 85.1896 7.05119 83.0438 4.89815L87.9255 0ZM73.3339 14.6406C76.2307 17.5472 78.466 20.8844 80.0396 24.6522C81.6132 28.4201 82.4 32.3852 82.4 36.5478C82.4 40.6744 81.6132 44.6216 80.0396 48.3894C78.466 52.1573 76.2307 55.5124 73.3339 58.4549L68.5057 53.6106C70.7589 51.3499 72.4755 48.7483 73.6557 45.8058C74.8359 42.8633 75.4439 39.7773 75.4797 36.5478C75.4797 33.3541 74.8896 30.286 73.7094 27.3435C72.5292 24.4011 70.7946 21.7815 68.5057 19.485L73.3339 14.6406ZM34.4943 19.485C32.2411 21.7456 30.5066 24.3472 29.2906 27.2897C28.0747 30.2322 27.4667 33.3182 27.4667 36.5478C27.4667 39.7414 28.0747 42.8095 29.2906 45.752C30.5066 48.6945 32.2411 51.314 34.4943 53.6106L29.6661 58.4549C26.7693 55.5483 24.534 52.2111 22.9604 48.4433C21.3868 44.6755 20.6 40.7103 20.6 36.5478C20.6 32.4211 21.3868 28.4739 22.9604 24.7061C24.534 20.9383 26.7693 17.5831 29.6661 14.6406L34.4943 19.485Z" fill="#6D30DF"/>
</svg>
