<svg width="106" height="106" viewBox="0 0 106 106" fill="none" xmlns="http://www.w3.org/2000/svg">
<path d="M31.4688 54.6562C24.0603 54.6562 16.5625 56.9319 16.5625 61.2812C16.5625 65.6306 24.0603 67.9062 31.4688 67.9062C38.8772 67.9062 46.375 65.6306 46.375 61.2812C46.375 56.9319 38.8772 54.6562 31.4688 54.6562ZM31.4688 64.5938C23.9378 64.5938 19.875 62.2435 19.875 61.2812C19.875 60.319 23.9378 57.9688 31.4688 57.9688C38.9997 57.9688 43.0625 60.319 43.0625 61.2812C43.0625 62.2435 38.9997 64.5938 31.4688 64.5938Z" fill="#6D30DF" stroke="#6D30DF"/>
<path d="M3.3125 23.1874H4.96875V41.4062C4.96875 43.1632 5.66674 44.8483 6.90917 46.0908C8.1516 47.3332 9.83669 48.0312 11.5938 48.0312H14.6081L14.8168 49.2833L8.30444 58.401C7.21636 59.9173 6.62922 61.7357 6.62506 63.602C6.6209 65.4683 7.19994 67.2893 8.28125 68.8105V69.213C8.27723 73.0084 9.17634 76.7503 10.9043 80.1296C12.6322 83.5089 15.1394 86.4286 18.2188 88.6474V102.687C18.2188 103.127 18.3932 103.548 18.7039 103.859C19.0145 104.169 19.4357 104.344 19.875 104.344H43.0625C43.5018 104.344 43.923 104.169 44.2336 103.859C44.5443 103.548 44.7188 103.127 44.7188 102.687V88.6474C47.7981 86.4286 50.3053 83.5089 52.0332 80.1296C53.7612 76.7503 54.6603 73.0084 54.6562 69.213V68.8105C55.7376 67.2893 56.3166 65.4683 56.3124 63.602C56.3083 61.7357 55.7211 59.9173 54.6331 58.401L48.1207 49.2833L48.3294 48.0312H51.3438C53.1008 48.0312 54.7859 47.3332 56.0283 46.0908C57.2708 44.8483 57.9688 43.1632 57.9688 41.4062V23.1874H59.625C60.0643 23.1874 60.4855 23.0129 60.7961 22.7023C61.1068 22.3917 61.2812 21.9705 61.2812 21.5312V14.9062C61.2812 14.4669 61.1068 14.0456 60.7961 13.735C60.4855 13.4244 60.0643 13.2499 59.625 13.2499H49.5219C47.9423 9.78924 45.4011 6.85562 42.201 4.79861C39.001 2.74161 35.277 1.64795 31.4729 1.64795C27.6687 1.64795 23.9448 2.74161 20.7448 4.79861C17.5447 6.85562 15.0035 9.78924 13.4239 13.2499H3.3125C2.87324 13.2499 2.45196 13.4244 2.14135 13.735C1.83075 14.0456 1.65625 14.4669 1.65625 14.9062V21.5312C1.65625 21.9705 1.83075 22.3917 2.14135 22.7023C2.45196 23.0129 2.87324 23.1874 3.3125 23.1874ZM11.5938 44.7187C10.7152 44.7187 9.87267 44.3697 9.25146 43.7485C8.63024 43.1273 8.28125 42.2847 8.28125 41.4062V23.1874H11.6285C11.705 28.2379 12.1562 33.2757 12.9784 38.2593L14.0549 44.7187H11.5938ZM42.1433 86.4032C41.9165 86.5545 41.7306 86.7594 41.602 86.9998C41.4735 87.2402 41.4062 87.5086 41.4062 87.7812V101.031H21.5312V87.7812C21.5313 87.5086 21.464 87.2402 21.3355 86.9998C21.2069 86.7594 21.021 86.5545 20.7942 86.4032C18.3235 84.7588 16.2372 82.6001 14.6778 80.0749C13.1185 77.5497 12.123 74.7174 11.7594 71.7719C17.0326 74.6607 22.9469 76.1789 28.9595 76.1874H33.978C39.9906 76.1789 45.9049 74.6607 51.1781 71.7719C50.8145 74.7174 49.819 77.5497 48.2597 80.0749C46.7003 82.6001 44.614 84.7588 42.1433 86.4032V86.4032ZM53 63.638C52.9989 64.6422 52.733 65.6284 52.2291 66.497C51.7251 67.3656 51.001 68.0859 50.1297 68.5853C45.2098 71.3937 39.6431 72.8721 33.978 72.8749H28.9595C23.2944 72.8721 17.7277 71.3937 12.8078 68.5853C12.1161 68.1897 11.5151 67.6536 11.0434 67.0114C10.5718 66.3692 10.2401 65.6353 10.0697 64.8569C9.89922 64.0786 9.89389 63.2732 10.054 62.4927C10.2141 61.7122 10.5361 60.9739 10.9992 60.3255L17.4155 51.3437H45.522L51.9383 60.3255C52.6304 61.2913 53.0017 62.4499 53 63.638ZM54.6562 41.4062C54.6562 42.2847 54.3073 43.1273 53.686 43.7485C53.0648 44.3697 52.2223 44.7187 51.3438 44.7187H48.8826L49.9591 38.2593C50.7813 33.2757 51.2325 28.2379 51.309 23.1874H54.6562V41.4062ZM57.9688 16.5624V19.8749H51.2593C51.1641 18.7566 50.9735 17.6483 50.6895 16.5624H57.9688ZM31.4688 4.96869C35.8599 4.97351 40.0699 6.72003 43.1749 9.82506C46.2799 12.9301 48.0264 17.14 48.0312 21.5312C48.0297 26.9516 47.5816 32.3626 46.6913 37.7094L44.9722 48.0312H17.9653L16.2462 37.7094C15.3559 32.3626 14.9078 26.9516 14.9062 21.5312C14.9111 17.14 16.6576 12.9301 19.7626 9.82506C22.8676 6.72003 27.0776 4.97351 31.4688 4.96869V4.96869ZM4.96875 16.5624H12.2563C11.9723 17.6483 11.7817 18.7566 11.6865 19.8749H4.96875V16.5624ZM97.7188 51.3437V44.7187C97.7188 44.2794 97.5443 43.8581 97.2336 43.5475C96.923 43.2369 96.5018 43.0624 96.0625 43.0624H94.4062V40.9441L103.211 38.0092C103.498 37.9137 103.753 37.7416 103.949 37.5113C104.145 37.2811 104.274 37.0016 104.323 36.7032C104.371 36.4047 104.337 36.0987 104.224 35.8183C104.111 35.5379 103.923 35.2938 103.681 35.1124L90.4312 25.1749C90.1446 24.9599 89.7959 24.8437 89.4375 24.8437H67.9062C67.467 24.8437 67.0457 25.0182 66.7351 25.3288C66.4245 25.6394 66.25 26.0607 66.25 26.4999V33.1249C66.2523 33.539 66.4109 33.937 66.694 34.2392C66.9772 34.5414 67.364 34.7255 67.7771 34.7547C67.3421 37.7982 65.7216 40.5463 63.2688 42.3999L61.9438 43.3937C61.6657 43.6023 61.4602 43.893 61.3566 44.2248C61.2529 44.5567 61.2563 44.9127 61.3662 45.2424C61.4762 45.5722 61.6871 45.8591 61.9691 46.0623C62.2511 46.2656 62.5899 46.3749 62.9375 46.3749H64.5938C67.5421 46.3695 70.4047 45.3818 72.7289 43.5677C75.0532 41.7536 76.7067 39.2167 77.428 36.3579L80.3016 43.0624H79.5C79.0607 43.0624 78.6395 43.2369 78.3289 43.5475C78.0182 43.8581 77.8438 44.2794 77.8438 44.7187V51.3437C77.8438 51.783 78.0182 52.2042 78.3289 52.5148C78.6395 52.8254 79.0607 52.9999 79.5 52.9999H81.1562V55.0934C81.157 55.1512 81.142 55.2082 81.1128 55.2581C81.0836 55.308 81.0414 55.349 80.9906 55.3767C80.0475 55.8477 79.2542 56.5722 78.6998 57.4688C78.1453 58.3655 77.8516 59.3988 77.8516 60.4531C77.8516 61.5073 78.1453 62.5407 78.6998 63.4373C79.2542 64.334 80.0475 65.0584 80.9906 65.5295C81.0414 65.5572 81.0836 65.5982 81.1128 65.6481C81.142 65.698 81.157 65.7549 81.1562 65.8127C81.1551 66.1653 81.0631 66.5117 80.889 66.8184C80.7149 67.125 80.4647 67.3816 80.1625 67.5633L77.9382 68.8983C76.3973 69.8293 75.1221 71.1413 74.2353 72.708C73.3485 74.2748 72.88 76.0434 72.875 77.8437V102.687C72.875 103.127 73.0495 103.548 73.3601 103.859C73.6707 104.169 74.092 104.344 74.5312 104.344H102.688C103.127 104.344 103.548 104.169 103.859 103.859C104.169 103.548 104.344 103.127 104.344 102.687V75.3345C104.363 67.1726 101.554 59.2561 96.3938 52.932C96.764 52.8609 97.0983 52.6639 97.3398 52.3744C97.5813 52.0849 97.7152 51.7207 97.7188 51.3437V51.3437ZM81.1562 49.6874V46.3749H94.4062V49.6874H81.1562ZM67.8963 42.4977C69.6782 40.2822 70.7942 37.6062 71.1144 34.7812H74.3872C74.0897 36.5286 73.3313 38.165 72.1903 39.5214C71.0493 40.8779 69.567 41.9053 67.8963 42.4977ZM79.3658 32.4724C79.2382 32.1745 79.0259 31.9206 78.7553 31.7422C78.4848 31.5638 78.1678 31.4687 77.8438 31.4687H69.5625V28.1562H88.886L99.1647 35.866L92.2266 38.1848C91.8978 38.2943 91.6116 38.5043 91.4083 38.7851C91.2051 39.0658 91.0951 39.4033 91.0938 39.7499V43.0624H83.904L79.3658 32.4724ZM101.031 79.4999V94.4062H76.1875V79.4999H101.031ZM76.1875 101.031V97.7187H101.031V101.031H76.1875ZM101.031 76.1874H76.3945C76.6151 75.2679 77.0159 74.4012 77.5736 73.6376C78.1314 72.8739 78.8352 72.2285 79.6441 71.7387L81.8684 70.4038C82.6596 69.9262 83.3145 69.253 83.7699 68.4488C84.2254 67.6447 84.466 66.7368 84.4688 65.8127C84.471 65.1383 84.2843 64.4767 83.9298 63.9029C83.5753 63.3292 83.0672 62.8662 82.463 62.5664C82.0702 62.3705 81.7398 62.0689 81.5089 61.6956C81.278 61.3223 81.1556 60.892 81.1556 60.4531C81.1556 60.0141 81.278 59.5838 81.5089 59.2105C81.7398 58.8372 82.0702 58.5357 82.463 58.3397C83.0672 58.0399 83.5753 57.5769 83.9298 57.0032C84.2843 56.4294 84.471 55.7679 84.4688 55.0934V52.9999H92.0196C97.8143 58.9891 101.047 67.0008 101.031 75.3345V76.1874Z" fill="#6D30DF" stroke="#6D30DF"/>
</svg>
