<svg width="98" height="98" viewBox="0 0 98 98" fill="none" xmlns="http://www.w3.org/2000/svg">
<path d="M87.8784 70.3152C86.3573 68.7995 84.4645 67.7102 82.3898 67.1565C80.315 66.6029 78.1311 66.6044 76.0571 67.1609L57.5903 48.694L70.4375 35.8927L71.7237 37.179C71.8661 37.3225 72.0354 37.4364 72.222 37.5142C72.4086 37.5919 72.6087 37.6319 72.8109 37.6319C73.013 37.6319 73.2132 37.5919 73.3998 37.5142C73.5864 37.4364 73.7557 37.3225 73.8981 37.179L76.0418 35.0352L81.6156 40.8693C81.7543 41.0149 81.9204 41.1318 82.1043 41.2133C82.2882 41.2947 82.4864 41.3391 82.6875 41.344C82.8601 41.3446 83.0314 41.3134 83.1928 41.2521C83.4729 41.1554 83.7189 40.9795 83.901 40.7458C84.0831 40.512 84.1934 40.2305 84.2187 39.9352V39.1237C84.5317 35.3001 84.009 31.4542 82.6869 27.8528C81.3648 24.2515 79.275 20.9809 76.5625 18.268L73.8215 15.5271C73.6792 15.3836 73.5098 15.2697 73.3232 15.1919C73.1366 15.1142 72.9365 15.0742 72.7343 15.0742C72.5322 15.0742 72.332 15.1142 72.1454 15.1919C71.9588 15.2697 71.7895 15.3836 71.6471 15.5271L69.534 17.6402C68.435 16.2942 67.8877 14.5813 68.0028 12.8474C68.1077 11.889 67.9849 10.9193 67.6443 10.0173C67.3037 9.11526 66.755 8.30639 66.0428 7.65648C64.8279 6.61118 63.2584 6.07142 61.6576 6.14833C60.0567 6.22524 58.5462 6.91296 57.4371 8.06991L53.9153 11.6071C51.1743 14.348 50.8528 18.1455 53.0731 20.6415C53.7216 21.3614 54.5316 21.9173 55.4366 22.2633C56.3417 22.6094 57.3159 22.7358 58.2793 22.6321C59.9897 22.5181 61.6784 23.0664 62.9956 24.1633L61.9543 25.2046C61.8108 25.3469 61.6969 25.5163 61.6191 25.7029C61.5414 25.8895 61.5014 26.0896 61.5014 26.2918C61.5014 26.4939 61.5414 26.6941 61.6191 26.8807C61.6969 27.0673 61.8108 27.2366 61.9543 27.379L62.1075 27.5321L49.3062 40.4099L30.625 21.698C31.1988 19.543 31.1734 17.2721 30.5516 15.1304C29.9298 12.9887 28.7351 11.0573 27.0964 9.54464C25.4576 8.03196 23.437 6.99534 21.2525 6.54657C19.0679 6.09779 16.8023 6.25389 14.7 6.99804C14.4551 7.08579 14.2367 7.23447 14.0652 7.43004C13.8937 7.62561 13.7749 7.86164 13.72 8.11585C13.6653 8.3665 13.6746 8.62686 13.7468 8.87301C13.8191 9.11916 13.952 9.34321 14.1334 9.5246L17.7318 13.123C18.3065 13.7017 18.6277 14.485 18.6248 15.3006C18.622 16.1161 18.2952 16.8971 17.7165 17.4718C17.1378 18.0464 16.3545 18.3677 15.539 18.3648C14.7234 18.3619 13.9424 18.0352 13.3678 17.4565L9.76933 13.858C9.58682 13.675 9.36095 13.5411 9.11276 13.4689C8.86457 13.3967 8.60213 13.3885 8.34991 13.445C8.09769 13.5016 7.86389 13.6211 7.6703 13.7924C7.47671 13.9636 7.32963 14.1811 7.24277 14.4246C6.42787 16.6869 6.2968 19.139 6.86589 21.4752C7.43498 23.8115 8.67906 25.9286 10.4431 27.5627C11.9714 28.9466 13.8191 29.9298 15.8207 30.4242C17.8223 30.9186 19.9153 30.9088 21.9121 30.3955L40.6393 49.0002L28.7262 60.9287L28.8334 61.0359C27.4803 60.9051 26.115 61.0763 24.8361 61.5371C23.5571 61.9978 22.3963 62.7366 21.4375 63.7002L8.37589 76.6852C6.65194 78.4173 5.68666 80.7633 5.69241 83.207C5.69525 84.4171 5.9364 85.6147 6.40209 86.7315C6.86778 87.8484 7.54888 88.8626 8.40652 89.7162C9.26415 90.5698 10.2815 91.2461 11.4005 91.7065C12.5195 92.167 13.7183 92.4025 14.9283 92.3996C17.3721 92.3939 19.7135 91.4176 21.4375 89.6855L34.4378 76.6852C35.3862 75.7243 36.1112 74.566 36.5611 73.293C37.011 72.02 37.1749 70.6634 37.0409 69.3199L49 57.3608L67.375 75.843C66.8689 77.8388 66.8671 79.9292 67.3696 81.9259C67.8721 83.9225 68.8632 85.763 70.2537 87.2815C71.399 88.5122 72.7853 89.4939 74.3264 90.1657C75.8675 90.8375 77.5304 91.1848 79.2115 91.1862C80.6145 91.1863 82.0073 90.9481 83.3306 90.4818C83.574 90.3949 83.7915 90.2478 83.9628 90.0543C84.1341 89.8607 84.2536 89.6269 84.3101 89.3746C84.3667 89.1224 84.3585 88.86 84.2863 88.6118C84.2141 88.3636 84.0802 88.1377 83.8971 87.9552L80.2987 84.3568C79.7283 83.783 79.4081 83.0068 79.4081 82.1977C79.4081 81.3887 79.7283 80.6125 80.2987 80.0387C80.5831 79.7539 80.9209 79.528 81.2927 79.3739C81.6644 79.2198 82.063 79.1405 82.4654 79.1405C82.8679 79.1405 83.2664 79.2198 83.6382 79.3739C84.01 79.528 84.3477 79.7539 84.6321 80.0387L88.2306 83.6218C88.4135 83.8057 88.6401 83.9401 88.8892 84.0124C89.1383 84.0847 89.4017 84.0926 89.6546 84.0352C89.9061 83.9779 90.1389 83.8581 90.3317 83.6867C90.5244 83.5154 90.6708 83.2982 90.7571 83.0552C91.528 80.8764 91.6667 78.5239 91.1573 76.2696C90.6479 74.0152 89.5112 71.9509 87.8784 70.3152V70.3152ZM57.9578 19.6615C57.4724 19.7139 56.9814 19.6496 56.526 19.4738C56.0705 19.298 55.6636 19.0158 55.3393 18.6509C54.2062 17.3799 54.4971 15.4046 56.0743 13.8274L59.6115 10.2902C60.1707 9.69921 60.9324 9.34094 61.7442 9.28701C62.5561 9.23307 63.3584 9.48744 63.9909 9.99929C64.3492 10.3189 64.6274 10.7182 64.8029 11.165C64.9785 11.6119 65.0465 12.0938 65.0015 12.5718C64.9069 14.0765 65.1445 15.5836 65.6976 16.9861C66.2507 18.3887 67.1056 19.6523 68.2018 20.6874L68.4468 20.9477C68.5892 21.0912 68.7585 21.2052 68.9451 21.2829C69.1317 21.3606 69.3319 21.4007 69.534 21.4007C69.7362 21.4007 69.9363 21.3606 70.1229 21.2829C70.3095 21.2052 70.4788 21.0912 70.6212 20.9477L72.7803 18.7734L74.434 20.4271C78.619 24.6108 81.0645 30.224 81.2787 36.1377L77.1443 31.789C76.8492 31.4983 76.4558 31.3289 76.0418 31.3143V31.3143C75.6379 31.32 75.2527 31.4852 74.9699 31.7737L72.7956 33.9327L71.5093 32.6312L65.3843 26.5062L65.2159 26.353L66.3031 25.2659C66.5883 24.979 66.7484 24.5909 66.7484 24.1863C66.7484 23.7818 66.5883 23.3937 66.3031 23.1068L65.8437 22.7087C64.8387 21.6461 63.6093 20.8212 62.245 20.2941C60.8808 19.7669 59.4161 19.5508 57.9578 19.6615V19.6615ZM64.3125 29.7677L68.2325 33.6877L55.4312 46.5349L51.4653 42.569L64.3125 29.7677ZM32.1562 74.5262L19.1559 87.5112C18.6057 88.1513 17.929 88.6709 17.1685 89.0372C16.408 89.4034 15.5799 89.6086 14.7363 89.6396C13.8928 89.6707 13.0519 89.5271 12.2664 89.2178C11.481 88.9084 10.768 88.4401 10.1721 87.8421C9.57629 87.2442 9.11049 86.5295 8.80395 85.743C8.49741 84.9564 8.35676 84.115 8.39083 83.2716C8.4249 82.4281 8.63295 81.6008 9.00192 80.8416C9.37089 80.0823 9.89283 79.4076 10.535 78.8596L23.5353 65.844C24.6822 64.7078 26.2313 64.0705 27.8457 64.0705C29.4601 64.0705 31.0093 64.7078 32.1562 65.844C32.728 66.4131 33.1817 67.0896 33.4913 67.8346C33.8009 68.5795 33.9603 69.3783 33.9603 70.1851C33.9603 70.9918 33.8009 71.7906 33.4913 72.5356C33.1817 73.2806 32.728 73.957 32.1562 74.5262ZM35.9384 65.9818C35.5234 65.139 34.9754 64.3686 34.3153 63.7002C33.6222 63.023 32.8263 62.4597 31.9571 62.0312L42.7678 51.3124L46.7643 55.1252L35.9384 65.9818ZM88.3837 79.4721L86.8525 77.9409C85.6847 76.8269 84.1329 76.2054 82.519 76.2054C80.9052 76.2054 79.3533 76.8269 78.1856 77.9409C77.6161 78.5097 77.1643 79.1852 76.8561 79.9288C76.5478 80.6723 76.3892 81.4694 76.3892 82.2743C76.3892 83.0792 76.5478 83.8762 76.8561 84.6198C77.1643 85.3634 77.6161 86.0389 78.1856 86.6077L79.7168 88.139C78.3718 88.2196 77.0257 88.0005 75.7758 87.4973C74.5259 86.9942 73.4033 86.2196 72.4893 85.2296C71.3702 83.9857 70.6051 82.4644 70.2738 80.8242C69.9426 79.184 70.0572 77.4851 70.6059 75.9043C70.6891 75.6397 70.6988 75.3575 70.6341 75.0878C70.5693 74.8181 70.4326 74.5711 70.2384 74.373L23.4281 27.5627C23.285 27.4208 23.1153 27.3085 22.9287 27.2323C22.7422 27.1561 22.5424 27.1175 22.3409 27.1187C22.1742 27.1129 22.0079 27.1389 21.8509 27.1952C20.2661 27.7379 18.5648 27.8451 16.9244 27.5057C15.2841 27.1664 13.7649 26.3928 12.5256 25.2659C11.5407 24.3479 10.7696 23.2247 10.2668 21.9758C9.76409 20.7268 9.54197 19.3826 9.6162 18.0383L11.1475 19.5696C12.2907 20.7311 13.8484 21.3909 15.4781 21.4038C17.1078 21.4167 18.6758 20.7817 19.8373 19.6385C20.9988 18.4953 21.6586 16.9375 21.6715 15.3079C21.6844 13.6782 21.0494 12.1101 19.9062 10.9487L18.375 9.41741C19.8885 9.32981 21.4003 9.61813 22.7754 10.2567C24.1505 10.8952 25.3462 11.8642 26.2558 13.0771C27.1655 14.29 27.7609 15.7091 27.9889 17.208C28.2169 18.7069 28.0704 20.2389 27.5625 21.6674C27.462 21.9411 27.4418 22.2378 27.5042 22.5227C27.5665 22.8075 27.709 23.0686 27.9146 23.2752L74.5412 69.9784C74.7408 70.1699 74.9886 70.3038 75.2582 70.3658C75.5278 70.4278 75.8092 70.4156 76.0725 70.3305C77.501 69.8226 79.033 69.6761 80.5319 69.9041C82.0307 70.1321 83.4499 70.7275 84.6628 71.6372C85.8757 72.5468 86.8446 73.7425 87.4832 75.1176C88.1217 76.4927 88.4101 78.0044 88.3225 79.518L88.3837 79.4721Z" fill="#6D30DF" stroke="#6D30DF"/>
</svg>
